<svg version="1.1" id="Camada_1" xmlns="http://www.w3.org/2000/svg" x="0" y="0" viewBox="0 0 3000 1163.5" style="enable-background:new 0 0 3000 1163.5" xml:space="preserve"><style>.st1{fill:#fff}</style><path d="M0 0h3000v1163.5H0V0z" style="fill:#231f20"/><path class="st1" d="M1756 410.3c-37.7 0-67.4 8.1-97 24.2 0-86.2 0-164.4 2.7-191.3l-180.6 32.3v16.2l18.9 2.7c24.2 5.4 32.4 18.8 37.7 51.2 5.4 64.7 2.7 409.7 0 466.3 48.5 10.8 99.7 18.9 151 18.9 142.8 0 229.1-88.9 229.1-229.1-.1-110.6-70.1-191.4-161.8-191.4zM1694 801c-10.8 0-24.3 0-32.3-2.7-2.7-37.7-5.4-196.8-2.7-336.9 16.2-5.4 26.9-8.1 40.4-8.1 59.3 0 91.7 70.1 91.7 156.3 0 107.9-40.5 191.4-97.1 191.4zM801.9 254H327.6v24.2l27 2.7c35 5.4 48.5 26.9 53.9 78.1 8.1 97 5.4 272.2 0 355.7-5.4 51.2-18.8 75.5-53.9 78.1l-27 5.4v21.6h304.5v-21.6l-32.3-5.4c-35-2.7-48.5-26.9-53.9-78.1-2.7-35-5.4-91.7-5.4-161.7l64.7 2.7c40.4 0 59.3 32.3 67.4 78.1h24.3V442.6h-24.3c-8.1 45.8-26.9 78.1-67.4 78.1l-64.7 2.7c0-91.6 2.7-177.9 5.4-229.1h94.3c72.8 0 110.5 45.8 137.5 126.7l27-8.1-2.8-158.9z"/><path class="st1" d="M955.6 404.9c134.8 0 202.1 91.6 202.1 212.9 0 115.9-75.5 212.9-210.2 212.9S745.4 739 745.4 617.8c-.1-115.9 75.4-212.9 210.2-212.9zm-8.1 26.9c-59.3 0-75.5 80.9-75.5 186 0 102.4 27 186 80.9 186 61.9 0 78.1-80.9 78.1-186 0-102.4-26.9-186-83.5-186zm1005.2 188.7c0-110.5 70.1-215.6 207.5-215.6 113.2 0 167.1 83.6 167.1 194h-250.7c-2.7 99.7 45.8 172.5 142.8 172.5 43.1 0 64.7-10.8 91.7-29.6l10.8 13.5c-27 37.7-86.2 75.5-161.7 75.5-121.2-.1-207.5-86.3-207.5-210.3zm124-51.2 126.7-2.7c0-53.9-8.1-134.7-53.9-134.7s-70.1 75.4-72.8 137.4zm571.4-142.9c-32.3-13.5-75.5-21.6-124-21.6-99.7 0-161.7 59.3-161.7 129.4s45.8 99.7 110.5 121.3c67.4 24.2 86.2 43.1 86.2 75.5 0 32.3-24.3 62-67.4 62-51.2 0-88.9-29.6-118.6-110.5l-18.9 5.4 2.7 118.6c32.3 13.5 91.6 24.3 142.8 24.3 105.1 0 172.5-53.9 172.5-137.5 0-56.6-29.7-88.9-99.7-115.9-75.5-29.6-102.4-48.5-102.4-83.5s24.3-59.3 56.6-59.3c48.5 0 80.8 29.6 105.1 102.4l18.8-5.4-2.5-105.2zm-1140-10.7c-45.8-26.9-126.7-13.5-169.8 83.6l2.7-94.3-180.6 35v16.2l18.9 2.7c24.3 2.7 35 16.2 37.7 51.2 5.4 64.7 2.7 177.9 0 234.5-2.7 32.3-13.5 48.5-37.7 51.2l-18.9 2.7v21.6H1411v-21.6l-32.3-2.7c-26.9-2.7-35-18.9-37.7-51.2-5.4-51.2-5.4-153.6-2.7-218.3 13.5-18.9 72.8-35 126.7 0l43.1-110.6z"/></svg>