<svg width="317" height="51" viewBox="0 0 317 51" fill="none" xmlns="http://www.w3.org/2000/svg">
<line x1="0.998457" y1="25.4753" x2="316.999" y2="24.5" stroke="#FF6600"/>
<circle cx="159.5" cy="25.5" r="25.5" fill="#FF6600"/>
<path d="M160.381 16.0117L153.586 36H148.965L142.184 16.0117H146.463L150.223 27.9062C150.286 28.1068 150.391 28.485 150.537 29.041C150.683 29.5879 150.829 30.1712 150.975 30.791C151.13 31.4017 151.234 31.9076 151.289 32.3086C151.344 31.9076 151.439 31.4017 151.576 30.791C151.722 30.1803 151.863 29.6016 152 29.0547C152.146 28.4987 152.251 28.1159 152.314 27.9062L156.102 16.0117H160.381ZM174.709 30.4492C174.709 31.6341 174.422 32.6641 173.848 33.5391C173.273 34.4141 172.435 35.0885 171.332 35.5625C170.238 36.0365 168.908 36.2734 167.34 36.2734C166.647 36.2734 165.968 36.2279 165.303 36.1367C164.646 36.0456 164.013 35.9134 163.402 35.7402C162.801 35.5579 162.227 35.3346 161.68 35.0703V31.1328C162.628 31.5521 163.612 31.9303 164.633 32.2676C165.654 32.6048 166.665 32.7734 167.668 32.7734C168.361 32.7734 168.917 32.6823 169.336 32.5C169.764 32.3177 170.074 32.0671 170.266 31.748C170.457 31.429 170.553 31.0645 170.553 30.6543C170.553 30.153 170.384 29.7246 170.047 29.3691C169.71 29.0137 169.245 28.681 168.652 28.3711C168.069 28.0612 167.408 27.7285 166.67 27.373C166.205 27.1543 165.699 26.89 165.152 26.5801C164.605 26.2611 164.086 25.8737 163.594 25.418C163.102 24.9622 162.696 24.4108 162.377 23.7637C162.067 23.1074 161.912 22.3236 161.912 21.4121C161.912 20.2181 162.186 19.1973 162.732 18.3496C163.279 17.502 164.059 16.8548 165.07 16.4082C166.091 15.9525 167.294 15.7246 168.68 15.7246C169.719 15.7246 170.708 15.8477 171.646 16.0938C172.594 16.3307 173.583 16.6771 174.613 17.1328L173.246 20.4277C172.326 20.054 171.501 19.7669 170.771 19.5664C170.042 19.3568 169.299 19.252 168.543 19.252C168.014 19.252 167.563 19.3385 167.189 19.5117C166.816 19.6758 166.533 19.9128 166.342 20.2227C166.15 20.5234 166.055 20.8743 166.055 21.2754C166.055 21.7493 166.191 22.1504 166.465 22.4785C166.747 22.7975 167.167 23.1074 167.723 23.4082C168.288 23.709 168.99 24.0599 169.828 24.4609C170.849 24.944 171.719 25.4499 172.439 25.9785C173.169 26.498 173.729 27.1133 174.121 27.8242C174.513 28.526 174.709 29.401 174.709 30.4492Z" fill="white"/>
</svg>
